<?xml version="1.0" encoding="utf-8"?>
<!-- Generator: Adobe Illustrator 21.0.0, SVG Export Plug-In . SVG Version: 6.00 Build 0)  -->
<svg version="1.1" id="Layer_1" xmlns="http://www.w3.org/2000/svg" xmlns:xlink="http://www.w3.org/1999/xlink" x="0px" y="0px"
	 viewBox="0 0 290 271.7" style="enable-background:new 0 0 290 271.7;" xml:space="preserve">
<style type="text/css">
	.Arched_x0020_Green{fill:url(#SVGID_1_);stroke:#FFFFFF;stroke-width:0.25;stroke-miterlimit:1;}
	.st0{fill:#FBB040;stroke:#BCBEC0;stroke-width:0.25;}
	.st1{fill:#00AEEF;stroke:#BCBEC0;stroke-width:0.25;}
	.st2{fill:#92278F;stroke:#BCBEC0;stroke-width:0.25;}
	.st3{fill:#C8BA0F;stroke:#BCBEC0;stroke-width:0.25;}
	.st4{fill:#2E3192;stroke:#BCBEC0;stroke-width:0.25;}
	.st5{fill:#2BB673;stroke:#BCBEC0;stroke-width:0.25;}
	.st6{fill:#EC008C;stroke:#BCBEC0;stroke-width:0.25;}
	.st7{fill:#808285;stroke:#BCBEC0;stroke-width:0.25;}
	.st8{fill:#ED1C24;stroke:#BCBEC0;stroke-width:0.25;}
</style>
<linearGradient id="SVGID_1_" gradientUnits="userSpaceOnUse" x1="-32" y1="592.9468" x2="-31.2929" y2="592.2397">
	<stop  offset="0" style="stop-color:#20AC4B"/>
	<stop  offset="0.9831" style="stop-color:#19361A"/>
</linearGradient>
<g>
	<g>
		<path class="st0" d="M127.5,3.9c17,25.2-22.5,89.3-19.5,83c8.3-7.6,46.5-32.3,84.4-34.6C167.6,51.3,145.8,38.3,127.5,3.9z"/>
		<path class="st0" d="M170,32.4c-2.5,3.7-7.6,4.7-11.3,2.2c-3.7-2.5-4.7-7.6-2.2-11.3c2.5-3.7,7.6-4.7,11.3-2.2
			C171.5,23.6,172.5,28.6,170,32.4z"/>
	</g>
	<g>
		<path class="st1" d="M226.1,21.9c-3.2,30.2-74.7,53.9-68.2,51c11.2-0.5,56.4,5.1,86.9,27.8C226.5,83.9,218.1,60,226.1,21.9z"/>
		<path class="st1" d="M240.4,71c-4.3,1.2-8.9-1.3-10.1-5.6c-1.2-4.3,1.3-8.9,5.6-10.1c4.3-1.2,8.9,1.3,10.1,5.6
			C247.2,65.2,244.7,69.7,240.4,71z"/>
	</g>
	<g>
		<path class="st2" d="M283.9,93.5c-21.8,21.1-91.9-6.7-85.1-4.8c8.9,6.8,39.9,40.1,48.7,77.1C244.2,141.3,253.2,117.6,283.9,93.5z"
			/>
		<path class="st2" d="M263.3,140.3c-4.1-1.8-6-6.6-4.1-10.8c1.8-4.1,6.7-6,10.8-4.1c4.1,1.8,6,6.6,4.1,10.8
			C272.2,140.3,267.4,142.2,263.3,140.3z"/>
	</g>
	<g>
		<path class="st3" d="M284.8,188.5c-30.3,2.1-66.1-64.2-62.1-58.3c2.4,11,4.8,56.4-12.2,90.4C223.7,199.6,245.9,187.2,284.8,188.5z
			"/>
		
			<ellipse transform="matrix(0.8983 -0.4393 0.4393 0.8983 -66.1405 129.2927)" class="st3" cx="246.3" cy="207.5" rx="8.2" ry="8.2"/>
	</g>
	<g>
		<path class="st4" d="M216.1,253.6c-24.6-17.8-9.4-91.6-10.1-84.6c-5.2,10-32.6,46.3-67.5,61.4
			C162.2,222.9,187.2,227.6,216.1,253.6z"/>
		
			<ellipse transform="matrix(0.2407 -0.9706 0.9706 0.2407 -103.8411 354.0924)" class="st4" cx="174.4" cy="243.4" rx="8.2" ry="8.2"/>
	</g>
	<g>
		<path class="st5" d="M117.4,267.7c-7.4-29.5,51.7-76.2,46.7-71.3c-10.4,4.3-54.7,14.5-91.2,3.6C95.9,209.5,112,229.2,117.4,267.7z
			"/>
		<path class="st5" d="M87.2,226.5c3.6-2.6,8.7-1.9,11.4,1.8c2.6,3.6,1.8,8.7-1.8,11.4c-3.6,2.7-8.7,1.9-11.4-1.8
			C82.8,234.2,83.6,229.1,87.2,226.5z"/>
	</g>
	<g>
		<path class="st6" d="M32.2,221.5c13.3-27.3,88.6-25.1,81.6-24.6c-10.7-3.4-51.2-24.1-72.2-55.8C53.1,163,52.8,188.4,32.2,221.5z"
			/>
		<path class="st6" d="M35.6,170.4c4.5,0.3,7.9,4.2,7.6,8.7c-0.3,4.5-4.2,7.9-8.7,7.6c-4.5-0.3-7.9-4.2-7.6-8.7
			C27.2,173.5,31.1,170.1,35.6,170.4z"/>
	</g>
	<g>
		<path class="st7" d="M5.1,134.7c27.7-12.4,84,37.7,78.3,33.6c-6-9.5-23.8-51.4-19.4-89.1C58.7,103.4,42.2,122.7,5.1,134.7z"/>
		<path class="st7" d="M40.5,97.8c3.2,3.1,3.3,8.3,0.2,11.5c-3.1,3.3-8.3,3.3-11.5,0.2c-3.2-3.1-3.3-8.3-0.2-11.5
			C32.1,94.8,37.3,94.7,40.5,97.8z"/>
	</g>
	<g>
		<path class="st8" d="M40.1,48.8c29.2,8.4,40.1,82.9,38.4,76.1c1.5-11.1,14.8-54.6,42.4-80.8C101.2,59.3,76.2,63.4,40.1,48.8z"/>
		<ellipse transform="matrix(0.9944 -0.1054 0.1054 0.9944 -4.1926 8.973)" class="st8" cx="82.8" cy="44.1" rx="8.2" ry="8.2"/>
	</g>
</g>
</svg>
